<?xml version="1.0" encoding="iso-8859-1"?>
<!-- Generator: Adobe Illustrator 19.0.0, SVG Export Plug-In . SVG Version: 6.00 Build 0)  -->
<svg version="1.1" id="Layer_1" xmlns="http://www.w3.org/2000/svg" xmlns:xlink="http://www.w3.org/1999/xlink" x="0px" y="0px"
	 viewBox="0 0 512 512" style="enable-background:new 0 0 512 512;" xml:space="preserve">
<path style="fill:#F95955;" d="M436.964,126.97L268.19,4.455c-3.88-2.813-8.451-4.195-13.012-4.134
	c-4.439,0.041-8.847,1.432-12.616,4.175L74.905,126.98c-5.587,4.083-2.692,12.921,4.216,12.921h120.696h105.642h127.299
	C439.686,139.901,442.571,131.033,436.964,126.97z"/>
<path style="fill:#99654B;" d="M269.398,137.05v206.375c-4.419-0.102-8.888-1.063-13.398-1.063c-4.51,0-8.98,0.961-13.398,1.063
	V137.05H269.398z"/>
<path style="fill:#875E4C;" d="M252.638,137.05v205.464c-3.372,0.01-6.714,1.143-10.036,1.224V137.05H252.638z"/>
<path style="fill:#AFAEB4;" d="M350.154,414.165v3.291c-1.158-1.087-2.316-2.184-3.464-3.291H350.154z"/>
<path style="fill:#99654B;" d="M371.443,319.911c-0.763,0-1.54-0.115-2.306-0.359c-4.011-1.272-6.23-5.555-4.958-9.565
	l16.059-50.618c1.272-4.012,5.555-6.237,9.566-4.958c4.011,1.272,6.23,5.555,4.958,9.565l-16.059,50.618
	C377.674,317.838,374.675,319.911,371.443,319.911z"/>
<path style="fill:#875E4C;" d="M412.198,277.128c-0.763,0-1.539-0.115-2.306-0.359l-49.391-15.67
	c-4.011-1.272-6.23-5.555-4.958-9.566s5.555-6.235,9.566-4.957l49.391,15.67c4.01,1.272,6.23,5.555,4.958,9.566
	C418.429,275.056,415.429,277.128,412.198,277.128z"/>
<path style="fill:#CDE06E;" d="M484.669,511.681H27.33c-9.748,0-17.65-7.902-17.65-17.65v-85.014h492.639v85.014
	C502.319,503.779,494.417,511.681,484.669,511.681z"/>
<path style="fill:#A8D855;" d="M59.038,511.681H27.609c-9.904,0-17.929-8.025-17.929-17.928v-87.206h31.429v87.206
	C41.109,503.656,49.134,511.681,59.038,511.681z"/>
<path style="fill:#F9D395;" d="M485.254,387.856H25.1c0,0,88.435-43.943,217.501-46.848c4.419-0.102,8.888-0.152,13.398-0.152
	s8.98,0.051,13.398,0.152c26.868,0.61,51.907,2.997,74.722,6.389c2.245,5.262,6.684,9.538,12.565,11.407
	c7.7,2.438,15.775,0.071,20.976-5.424C444.612,367.307,485.254,387.856,485.254,387.856z"/>
<path style="fill:#F9B858;" d="M287.429,341.699c-119.091,6.318-199.268,46.158-199.268,46.158H25.1
	c0,0,88.435-43.943,217.501-46.848c4.419-0.102,8.888-0.152,13.398-0.152s8.98,0.051,13.398,0.152
	C275.503,341.15,281.517,341.373,287.429,341.699z"/>
<polygon style="fill:#FFC524;" points="305.459,139.901 199.817,139.901 255.177,0.321 "/>
<g>
	<path style="fill:#98C44D;" d="M65.224,482.731c-4.208,0-7.618-3.41-7.618-7.618v-60.948c0-4.208,3.411-7.618,7.618-7.618
		c4.208,0,7.618,3.41,7.618,7.618v60.948C72.842,479.321,69.432,482.731,65.224,482.731z"/>
	<path style="fill:#98C44D;" d="M138.361,482.731c-4.207,0-7.618-3.41-7.618-7.618v-60.948c0-4.208,3.411-7.618,7.618-7.618
		c4.208,0,7.618,3.41,7.618,7.618v60.948C145.98,479.321,142.569,482.731,138.361,482.731z"/>
	<path style="fill:#98C44D;" d="M211.498,482.731c-4.207,0-7.618-3.41-7.618-7.618v-60.948c0-4.208,3.411-7.618,7.618-7.618
		c4.208,0,7.618,3.41,7.618,7.618v60.948C219.117,479.321,215.706,482.731,211.498,482.731z"/>
	<path style="fill:#98C44D;" d="M284.635,482.731c-4.207,0-7.618-3.41-7.618-7.618v-60.948c0-4.208,3.411-7.618,7.618-7.618
		c4.208,0,7.618,3.41,7.618,7.618v60.948C292.254,479.321,288.843,482.731,284.635,482.731z"/>
	<path style="fill:#98C44D;" d="M357.772,482.731c-4.208,0-7.618-3.41-7.618-7.618v-60.948c0-4.208,3.411-7.618,7.618-7.618
		s7.618,3.41,7.618,7.618v60.948C365.391,479.321,361.98,482.731,357.772,482.731z"/>
	<path style="fill:#98C44D;" d="M430.909,482.731c-4.207,0-7.618-3.41-7.618-7.618v-60.948c0-4.208,3.411-7.618,7.618-7.618
		s7.618,3.41,7.618,7.618v60.948C438.528,479.321,435.117,482.731,430.909,482.731z"/>
</g>
<path style="fill:#67A1F6;" d="M390.877,318.457l-8.594,27.081c-0.965,3.027-2.57,5.678-4.622,7.842
	c-5.201,5.495-13.276,7.862-20.976,5.424c-5.881-1.869-10.32-6.145-12.565-11.407c-1.869-4.337-2.235-9.345-0.701-14.191
	l8.594-27.081L390.877,318.457z"/>
<path style="fill:#4C86F5;" d="M370.754,358.154c-4.307,1.818-9.264,2.174-14.069,0.65c-5.881-1.869-10.32-6.145-12.565-11.407
	c-1.869-4.337-2.235-9.345-0.701-14.191l8.594-27.081l14.363,4.561l-7.151,22.52c-1.534,4.845-1.168,9.853,0.701,14.191
	C361.947,352.131,365.736,356.062,370.754,358.154z"/>
<path style="fill:#F95955;" d="M512,401.01c0,3.627-1.473,6.918-3.85,9.305c-2.387,2.377-5.668,3.85-9.305,3.85H13.155
	C5.892,414.165,0,408.274,0,401.01c0-3.626,1.473-6.917,3.85-9.304c2.387-2.377,5.668-3.85,9.305-3.85h485.691
	C506.108,387.856,512,393.747,512,401.01z"/>
<g>
	<path style="fill:#CC4A4A;" d="M45.863,414.165H13.155C5.892,414.165,0,408.274,0,401.01c0-3.626,1.473-6.917,3.85-9.304
		c2.387-2.377,5.668-3.85,9.305-3.85h32.708c-3.636,0-6.917,1.473-9.305,3.85c-2.377,2.387-3.85,5.678-3.85,9.304
		C32.708,408.274,38.6,414.165,45.863,414.165z"/>
	<path style="fill:#CC4A4A;" d="M102.991,139.901H79.12c-6.907,0-9.802-8.838-4.215-12.921L242.561,4.496
		c3.769-2.743,8.177-4.134,12.616-4.175L98.776,126.98C93.189,131.063,96.084,139.901,102.991,139.901z"/>
</g>
<g>
</g>
<g>
</g>
<g>
</g>
<g>
</g>
<g>
</g>
<g>
</g>
<g>
</g>
<g>
</g>
<g>
</g>
<g>
</g>
<g>
</g>
<g>
</g>
<g>
</g>
<g>
</g>
<g>
</g>
</svg>
